<svg width="86" height="134" viewBox="0 0 86 134" fill="none" xmlns="http://www.w3.org/2000/svg">
<path d="M2.92351 126.434L0.730878 126.189L0 65.9016L34.1076 57.3588L37.0312 1.46448C37.1936 0.976321 37.7133 0 38.4929 0H40.1983C40.9292 0 42.3422 0.292896 42.1473 1.46448C55.1287 1.70834 81.0796 2.04964 81.1274 1.4661C81.1275 1.46556 81.1275 1.46502 81.1275 1.46448C81.1275 0.878689 81.9396 0.4068 82.3456 0.24408H84.7819C85.3666 0.24408 85.8376 1.54584 86 2.19672L84.051 45.3989V62.2404L84.7819 120.82L82.3456 121.552L80.153 120.82L79.1785 86.6485L58.9575 93.7268V132.536L55.7904 134L53.1105 133.756V80.5464L39.9547 79.633L40.9292 115.45L37.5184 115.938L36.3003 115.45L35.0822 82.0109L6.09065 88.6011L6.5779 125.213L2.92351 126.434Z" fill="#F3D847"/>
<path d="M6.09058 77.6175V85.184L32.8894 79.326L6.09058 77.6175Z" fill="#262626"/>
<path d="M58.9575 89.8215V75.1767L80.6402 68.5865V82.9872L58.9575 89.8215Z" fill="#262626"/>
<path d="M79.1785 68.9174V83.4754H81.3711L80.8838 68.3424L79.1785 68.9174Z" fill="#F3D847"/>
<path d="M39.9547 49.0601V57.3588L78.6913 60.776L78.9349 51.2568L39.9547 49.0601Z" fill="#262626"/>
<path d="M50.187 7.32241L42.1473 7.07833L40.442 42.9581L48.238 43.2022L50.187 7.32241Z" fill="#262626"/>
<path d="M57.2522 7.32241H53.3541L51.4051 43.6904H55.7904L57.2522 7.32241Z" fill="#262626"/>
<path d="M63.5864 7.81057H59.9321L58.7139 43.4463L61.8811 43.6904L63.5864 7.81057Z" fill="#262626"/>
<path d="M69.9207 7.81057H66.7536L65.2918 43.6904L68.2153 43.9344L69.9207 7.81057Z" fill="#262626"/>
<path d="M80.6403 8.05465H73.5751L71.6261 44.1785L79.1785 44.4226L80.6403 8.05465Z" fill="#262626"/>
</svg>
