<svg width="280" height="101" viewBox="0 0 280 101" fill="none" xmlns="http://www.w3.org/2000/svg">
<path d="M48.3848 56.25H29.6348V41.2793C29.6348 38.9746 30.0645 37.0312 30.9238 35.4492C31.7832 33.8477 32.916 32.5586 34.3223 31.582C35.7285 30.6055 37.3301 29.9023 39.127 29.4727C40.9238 29.043 42.7598 28.8281 44.6348 28.8281V37.5C44.2441 37.5195 43.8242 37.5879 43.375 37.7051C42.9453 37.8223 42.5449 38.0176 42.1738 38.291C41.8223 38.5645 41.5195 38.9453 41.2656 39.4336C41.0312 39.9023 40.9141 40.5078 40.9141 41.25H48.3848V56.25ZM25.8848 56.25H7.13477V41.2793C7.13477 38.9746 7.56445 37.0312 8.42383 35.4492C9.2832 33.8477 10.416 32.5586 11.8223 31.582C13.2285 30.6055 14.8301 29.9023 16.627 29.4727C18.4238 29.043 20.2598 28.8281 22.1348 28.8281V37.5C21.7441 37.5195 21.3242 37.5879 20.875 37.7051C20.4453 37.8223 20.0449 38.0176 19.6738 38.291C19.3223 38.5645 19.0195 38.9453 18.7656 39.4336C18.5312 39.9023 18.4141 40.5078 18.4141 41.25H25.8848V56.25ZM92.7109 60.8789C92.6914 62.8125 92.4082 64.5312 91.8613 66.0352C91.334 67.5195 90.5918 68.8086 89.6348 69.9023C88.6777 70.9766 87.5547 71.8945 86.2656 72.6562C84.9766 73.3984 83.5898 74.0039 82.1055 74.4727C80.6211 74.9219 79.0586 75.2051 77.418 75.3223C75.7969 75.459 74.166 75.5273 72.5254 75.5273C69.5566 75.5273 66.9492 75.4102 64.7031 75.1758C63.4141 75.0195 61.4902 74.5898 58.9316 73.8867C56.8418 73.3203 55.2012 72.7246 54.0098 72.0996V60.5273H62.8281C63.8438 61.9336 64.9863 62.9688 66.2559 63.6328C67.5449 64.2969 68.8633 64.6289 70.2109 64.6289C70.5625 64.6289 70.9531 64.5996 71.3828 64.541C71.8125 64.4824 72.2129 64.3164 72.584 64.043C72.9746 63.7695 73.2969 63.3398 73.5508 62.7539C73.8242 62.168 73.9609 61.3477 73.9609 60.293C72.2812 60.1367 70.6113 59.9121 68.9512 59.6191C67.3105 59.3262 65.7383 58.9258 64.2344 58.418C62.7305 57.9102 61.3242 57.2754 60.0156 56.5137C58.7266 55.7324 57.6035 54.7949 56.6465 53.7012C55.709 52.6074 54.9668 51.3281 54.4199 49.8633C53.8926 48.3789 53.6289 46.6699 53.6289 44.7363C53.6289 42.666 53.9023 40.8496 54.4492 39.2871C54.9961 37.7051 55.7383 36.3477 56.6758 35.2148C57.6328 34.0625 58.7461 33.1152 60.0156 32.373C61.3047 31.6113 62.6816 31.0059 64.1465 30.5566C65.6309 30.1074 67.1641 29.8242 68.7461 29.707C70.3477 29.5898 71.9395 29.5312 73.5215 29.5312C75.8262 29.5312 77.8965 29.6191 79.7324 29.7949C81.5879 29.9512 83.2578 30.2051 84.7422 30.5566C86.2266 30.9082 87.5352 31.3086 88.668 31.7578C89.8203 32.1875 90.8457 32.6074 91.7441 33.0176V44.4434H82.9258C81.9297 43.0371 80.8164 42.002 79.5859 41.3379C78.375 40.6738 77.125 40.3418 75.8359 40.3418C75.4844 40.3418 75.084 40.3906 74.6348 40.4883C74.1855 40.5664 73.7656 40.7715 73.375 41.1035C72.9844 41.416 72.6523 41.8848 72.3789 42.5098C72.1055 43.1152 71.9688 43.9453 71.9688 45C75.3867 45.1172 78.3945 45.4883 80.9922 46.1133C83.5898 46.7383 85.748 47.6855 87.4668 48.9551C89.2051 50.2051 90.5137 51.8164 91.3926 53.7891C92.2715 55.7422 92.7109 58.1055 92.7109 60.8789ZM137.301 30V45H132.379C132.047 44.5703 131.666 44.1309 131.236 43.6816C130.807 43.2324 130.328 42.832 129.801 42.4805C129.273 42.1094 128.697 41.8164 128.072 41.6016C127.447 41.3672 126.773 41.25 126.051 41.25V61.5527L129.801 62.2852V75H103.551V62.2852L107.301 61.5527V41.25C106.578 41.25 105.904 41.3672 105.279 41.6016C104.654 41.8164 104.078 42.1094 103.551 42.4805C103.023 42.832 102.545 43.2324 102.115 43.6816C101.686 44.1309 101.305 44.5703 100.973 45H96.0508V30H137.301ZM189.859 43.4473C189.84 44.0723 189.83 44.6875 189.83 45.293C189.83 45.8789 189.83 46.4551 189.83 47.0215V51.9727C189.83 56.1133 189.264 59.6875 188.131 62.6953C187.018 65.6836 185.484 68.1543 183.531 70.1074C181.598 72.041 179.332 73.4277 176.734 74.2676C174.137 75.1074 171.373 75.5273 168.443 75.5273C166.158 75.5273 163.961 75.3711 161.852 75.0586C159.762 74.7656 157.809 74.209 155.992 73.3887C154.176 72.5488 152.525 71.4941 151.041 70.2246C149.557 68.9355 148.277 67.4121 147.203 65.6543C146.148 63.877 145.328 61.8555 144.742 59.5898C144.176 57.3242 143.893 54.7852 143.893 51.9727V43.4473L140.143 42.7148V30H164.488V42.7148L160.738 43.4473V47.2266C160.738 47.7148 160.738 48.2129 160.738 48.7207C160.738 49.209 160.738 49.668 160.738 50.0977C160.758 50.5273 160.768 50.9082 160.768 51.2402C160.768 51.5723 160.768 51.8164 160.768 51.9727C160.768 52.4609 160.777 53.0273 160.797 53.6719C160.816 54.3164 160.895 54.9902 161.031 55.6934C161.188 56.377 161.412 57.0605 161.705 57.7441C161.998 58.4277 162.418 59.043 162.965 59.5898C163.531 60.1172 164.234 60.5469 165.074 60.8789C165.934 61.2109 166.988 61.377 168.238 61.377C169.488 61.377 170.533 61.2109 171.373 60.8789C172.232 60.5469 172.945 60.1172 173.512 59.5898C174.078 59.043 174.508 58.4277 174.801 57.7441C175.113 57.0605 175.338 56.377 175.475 55.6934C175.611 54.9902 175.689 54.3164 175.709 53.6719C175.748 53.0273 175.768 52.4609 175.768 51.9727C175.768 51.8164 175.768 51.5723 175.768 51.2402C175.768 50.9082 175.758 50.5273 175.738 50.0977C175.738 49.668 175.738 49.209 175.738 48.7207C175.738 48.2129 175.738 47.7148 175.738 47.2266V43.4473L171.988 42.7148V30H193.609V42.7148L189.859 43.4473ZM220.973 63.75C221.91 63.75 222.789 63.6426 223.609 63.4277C224.43 63.1934 225.191 62.9004 225.895 62.5488C226.598 62.1973 227.232 61.7969 227.799 61.3477C228.385 60.8984 228.893 60.4492 229.322 60H234.215V75H198.473V62.2852L202.223 61.5527V43.4473L198.473 42.7148V30H224.723V42.7148L220.973 43.4473V63.75ZM258.619 30H277.369V44.9707C277.369 47.4512 276.939 49.541 276.08 51.2402C275.221 52.9199 274.088 54.2871 272.682 55.3418C271.275 56.377 269.674 57.1191 267.877 57.5684C266.08 58.0176 264.244 58.2422 262.369 58.2422V48.75C262.74 48.7305 263.141 48.6621 263.57 48.5449C264 48.4277 264.4 48.2324 264.771 47.959C265.143 47.6855 265.455 47.3145 265.709 46.8457C265.963 46.3574 266.09 45.7422 266.09 45H258.619V30ZM236.119 30H254.869V44.9707C254.869 47.4512 254.439 49.541 253.58 51.2402C252.721 52.9199 251.588 54.2871 250.182 55.3418C248.775 56.377 247.174 57.1191 245.377 57.5684C243.58 58.0176 241.744 58.2422 239.869 58.2422V48.75C240.24 48.7305 240.641 48.6621 241.07 48.5449C241.5 48.4277 241.9 48.2324 242.271 47.959C242.643 47.6855 242.955 47.3145 243.209 46.8457C243.463 46.3574 243.59 45.7422 243.59 45H236.119V30Z" fill="#F2E52E"/>
<path d="M44.3848 53.25H25.6348V38.2793C25.6348 35.9746 26.0645 34.0312 26.9238 32.4492C27.7832 30.8477 28.916 29.5586 30.3223 28.582C31.7285 27.6055 33.3301 26.9023 35.127 26.4727C36.9238 26.043 38.7598 25.8281 40.6348 25.8281V34.5C40.2441 34.5195 39.8242 34.5879 39.375 34.7051C38.9453 34.8223 38.5449 35.0176 38.1738 35.291C37.8223 35.5645 37.5195 35.9453 37.2656 36.4336C37.0312 36.9023 36.9141 37.5078 36.9141 38.25H44.3848V53.25ZM21.8848 53.25H3.13477V38.2793C3.13477 35.9746 3.56445 34.0312 4.42383 32.4492C5.2832 30.8477 6.41602 29.5586 7.82227 28.582C9.22852 27.6055 10.8301 26.9023 12.627 26.4727C14.4238 26.043 16.2598 25.8281 18.1348 25.8281V34.5C17.7441 34.5195 17.3242 34.5879 16.875 34.7051C16.4453 34.8223 16.0449 35.0176 15.6738 35.291C15.3223 35.5645 15.0195 35.9453 14.7656 36.4336C14.5312 36.9023 14.4141 37.5078 14.4141 38.25H21.8848V53.25ZM88.7109 57.8789C88.6914 59.8125 88.4082 61.5312 87.8613 63.0352C87.334 64.5195 86.5918 65.8086 85.6348 66.9023C84.6777 67.9766 83.5547 68.8945 82.2656 69.6562C80.9766 70.3984 79.5898 71.0039 78.1055 71.4727C76.6211 71.9219 75.0586 72.2051 73.418 72.3223C71.7969 72.459 70.166 72.5273 68.5254 72.5273C65.5566 72.5273 62.9492 72.4102 60.7031 72.1758C59.4141 72.0195 57.4902 71.5898 54.9316 70.8867C52.8418 70.3203 51.2012 69.7246 50.0098 69.0996V57.5273H58.8281C59.8438 58.9336 60.9863 59.9688 62.2559 60.6328C63.5449 61.2969 64.8633 61.6289 66.2109 61.6289C66.5625 61.6289 66.9531 61.5996 67.3828 61.541C67.8125 61.4824 68.2129 61.3164 68.584 61.043C68.9746 60.7695 69.2969 60.3398 69.5508 59.7539C69.8242 59.168 69.9609 58.3477 69.9609 57.293C68.2812 57.1367 66.6113 56.9121 64.9512 56.6191C63.3105 56.3262 61.7383 55.9258 60.2344 55.418C58.7305 54.9102 57.3242 54.2754 56.0156 53.5137C54.7266 52.7324 53.6035 51.7949 52.6465 50.7012C51.709 49.6074 50.9668 48.3281 50.4199 46.8633C49.8926 45.3789 49.6289 43.6699 49.6289 41.7363C49.6289 39.666 49.9023 37.8496 50.4492 36.2871C50.9961 34.7051 51.7383 33.3477 52.6758 32.2148C53.6328 31.0625 54.7461 30.1152 56.0156 29.373C57.3047 28.6113 58.6816 28.0059 60.1465 27.5566C61.6309 27.1074 63.1641 26.8242 64.7461 26.707C66.3477 26.5898 67.9395 26.5312 69.5215 26.5312C71.8262 26.5312 73.8965 26.6191 75.7324 26.7949C77.5879 26.9512 79.2578 27.2051 80.7422 27.5566C82.2266 27.9082 83.5352 28.3086 84.668 28.7578C85.8203 29.1875 86.8457 29.6074 87.7441 30.0176V41.4434H78.9258C77.9297 40.0371 76.8164 39.002 75.5859 38.3379C74.375 37.6738 73.125 37.3418 71.8359 37.3418C71.4844 37.3418 71.084 37.3906 70.6348 37.4883C70.1855 37.5664 69.7656 37.7715 69.375 38.1035C68.9844 38.416 68.6523 38.8848 68.3789 39.5098C68.1055 40.1152 67.9688 40.9453 67.9688 42C71.3867 42.1172 74.3945 42.4883 76.9922 43.1133C79.5898 43.7383 81.748 44.6855 83.4668 45.9551C85.2051 47.2051 86.5137 48.8164 87.3926 50.7891C88.2715 52.7422 88.7109 55.1055 88.7109 57.8789ZM133.301 27V42H128.379C128.047 41.5703 127.666 41.1309 127.236 40.6816C126.807 40.2324 126.328 39.832 125.801 39.4805C125.273 39.1094 124.697 38.8164 124.072 38.6016C123.447 38.3672 122.773 38.25 122.051 38.25V58.5527L125.801 59.2852V72H99.5508V59.2852L103.301 58.5527V38.25C102.578 38.25 101.904 38.3672 101.279 38.6016C100.654 38.8164 100.078 39.1094 99.5508 39.4805C99.0234 39.832 98.5449 40.2324 98.1152 40.6816C97.6855 41.1309 97.3047 41.5703 96.9727 42H92.0508V27H133.301ZM185.859 40.4473C185.84 41.0723 185.83 41.6875 185.83 42.293C185.83 42.8789 185.83 43.4551 185.83 44.0215V48.9727C185.83 53.1133 185.264 56.6875 184.131 59.6953C183.018 62.6836 181.484 65.1543 179.531 67.1074C177.598 69.041 175.332 70.4277 172.734 71.2676C170.137 72.1074 167.373 72.5273 164.443 72.5273C162.158 72.5273 159.961 72.3711 157.852 72.0586C155.762 71.7656 153.809 71.209 151.992 70.3887C150.176 69.5488 148.525 68.4941 147.041 67.2246C145.557 65.9355 144.277 64.4121 143.203 62.6543C142.148 60.877 141.328 58.8555 140.742 56.5898C140.176 54.3242 139.893 51.7852 139.893 48.9727V40.4473L136.143 39.7148V27H160.488V39.7148L156.738 40.4473V44.2266C156.738 44.7148 156.738 45.2129 156.738 45.7207C156.738 46.209 156.738 46.668 156.738 47.0977C156.758 47.5273 156.768 47.9082 156.768 48.2402C156.768 48.5723 156.768 48.8164 156.768 48.9727C156.768 49.4609 156.777 50.0273 156.797 50.6719C156.816 51.3164 156.895 51.9902 157.031 52.6934C157.188 53.377 157.412 54.0605 157.705 54.7441C157.998 55.4277 158.418 56.043 158.965 56.5898C159.531 57.1172 160.234 57.5469 161.074 57.8789C161.934 58.2109 162.988 58.377 164.238 58.377C165.488 58.377 166.533 58.2109 167.373 57.8789C168.232 57.5469 168.945 57.1172 169.512 56.5898C170.078 56.043 170.508 55.4277 170.801 54.7441C171.113 54.0605 171.338 53.377 171.475 52.6934C171.611 51.9902 171.689 51.3164 171.709 50.6719C171.748 50.0273 171.768 49.4609 171.768 48.9727C171.768 48.8164 171.768 48.5723 171.768 48.2402C171.768 47.9082 171.758 47.5273 171.738 47.0977C171.738 46.668 171.738 46.209 171.738 45.7207C171.738 45.2129 171.738 44.7148 171.738 44.2266V40.4473L167.988 39.7148V27H189.609V39.7148L185.859 40.4473ZM216.973 60.75C217.91 60.75 218.789 60.6426 219.609 60.4277C220.43 60.1934 221.191 59.9004 221.895 59.5488C222.598 59.1973 223.232 58.7969 223.799 58.3477C224.385 57.8984 224.893 57.4492 225.322 57H230.215V72H194.473V59.2852L198.223 58.5527V40.4473L194.473 39.7148V27H220.723V39.7148L216.973 40.4473V60.75ZM254.619 27H273.369V41.9707C273.369 44.4512 272.939 46.541 272.08 48.2402C271.221 49.9199 270.088 51.2871 268.682 52.3418C267.275 53.377 265.674 54.1191 263.877 54.5684C262.08 55.0176 260.244 55.2422 258.369 55.2422V45.75C258.74 45.7305 259.141 45.6621 259.57 45.5449C260 45.4277 260.4 45.2324 260.771 44.959C261.143 44.6855 261.455 44.3145 261.709 43.8457C261.963 43.3574 262.09 42.7422 262.09 42H254.619V27ZM232.119 27H250.869V41.9707C250.869 44.4512 250.439 46.541 249.58 48.2402C248.721 49.9199 247.588 51.2871 246.182 52.3418C244.775 53.377 243.174 54.1191 241.377 54.5684C239.58 55.0176 237.744 55.2422 235.869 55.2422V45.75C236.24 45.7305 236.641 45.6621 237.07 45.5449C237.5 45.4277 237.9 45.2324 238.271 44.959C238.643 44.6855 238.955 44.3145 239.209 43.8457C239.463 43.3574 239.59 42.7422 239.59 42H232.119V27Z" fill="#262626"/>
</svg>
